<?xml version="1.0" encoding="UTF-8" standalone="no"?>
<svg
   xmlns:dc="http://purl.org/dc/elements/1.1/"
   xmlns:cc="http://creativecommons.org/ns#"
   xmlns:rdf="http://www.w3.org/1999/02/22-rdf-syntax-ns#"
   xmlns:svg="http://www.w3.org/2000/svg"
   xmlns="http://www.w3.org/2000/svg"
   xmlns:sodipodi="http://sodipodi.sourceforge.net/DTD/sodipodi-0.dtd"
   xmlns:inkscape="http://www.inkscape.org/namespaces/inkscape"
   inkscape:version="1.0.1 (3bc2e813f5, 2020-09-07)"
   sodipodi:docname="header_curve.svg"
   id="svg3"
   version="1.1"
   viewBox="0 0 1921.718 359.757"
   height="359.75699"
   width="1921.718">
  <metadata
     id="metadata9">
    <rdf:RDF>
      <cc:Work
         rdf:about="">
        <dc:format>image/svg+xml</dc:format>
        <dc:type
           rdf:resource="http://purl.org/dc/dcmitype/StillImage" />
        <dc:title />
      </cc:Work>
    </rdf:RDF>
  </metadata>
  <defs
     id="defs7" />
  <sodipodi:namedview
     inkscape:current-layer="svg3"
     inkscape:window-maximized="1"
     inkscape:window-y="-8"
     inkscape:window-x="54"
     inkscape:cy="31.636701"
     inkscape:cx="773.07414"
     inkscape:zoom="0.83673088"
     showgrid="false"
     id="namedview5"
     inkscape:window-height="1057"
     inkscape:window-width="1858"
     inkscape:pageshadow="2"
     inkscape:pageopacity="0"
     guidetolerance="10"
     gridtolerance="10"
     objecttolerance="10"
     borderopacity="1"
     bordercolor="#666666"
     pagecolor="#ffffff"
     inkscape:document-rotation="0" />
  <path
     style="mix-blend-mode:normal;fill:#5a67d8;fill-opacity:1;stroke:none;stroke-width:0.875031px;stroke-linecap:butt;stroke-linejoin:miter;stroke-opacity:1"
     d="m 0.2427686,0.60671618 c 0,0 -4.5967618,4.50028082 -3.1324019,74.43360282 C 1.7704173,297.58999 540.49117,278.41327 738.37255,278.41327 c 111.93635,0 32.65595,7.09148 310.75645,-0.78372 814.4317,2.7 876.7208,-90.92257 874.4446,-208.003571 l -1.8087,-72.6350797 z"
     id="path834"
     sodipodi:nodetypes="csscccc"
     mask="none" />
  <path
     id="path1031"
     mask="none"
     style="opacity:0.171429;fill:#e2e8f0;fill-opacity:1;stroke:none;stroke-width:0.875031px;stroke-linecap:butt;stroke-linejoin:miter;stroke-opacity:1"
     d="M 29.566406 -43.945312 C 6.5486045 -44.697109 3.9267735 42.399926 7.125 122.63086 C 11.669875 132.56899 24.57098 156.13973 52.890625 178.9043 C 77.839086 198.95897 103.78144 211.05327 141.62305 225.28125 C 141.68531 225.30466 141.73871 225.32817 141.80078 225.35156 C 207.07574 197.07141 273.42969 159.96289 273.42969 159.96289 C 345.19526 122.61703 81.113333 -15.120542 35.556641 -41.990234 C 33.421172 -43.249749 31.427508 -43.884526 29.566406 -43.945312 z " />
  <path
     id="path907"
     mask="none"
     style="opacity:0.17857143;fill:#e2e8f0;fill-opacity:1;stroke:none;stroke-width:0.875031px;stroke-linecap:butt;stroke-linejoin:miter;stroke-opacity:1"
     d="M 1553.7754 -41.222656 C 1478.8375 -41.20302 1271.1445 168.64258 1271.1445 168.64258 C 1232.5903 205.07926 1322.5564 240.72322 1431.7949 269.23828 C 1449.354 268.39742 1531.4144 264.31146 1575.6562 259.01758 C 1619.9668 253.71546 1695.4178 241.83165 1711.3125 239.31055 C 1677.3136 146.94818 1600.9894 9.8492342 1574.748 -30.958984 C 1570.18 -38.06285 1562.9783 -41.225068 1553.7754 -41.222656 z " />
  <path
     id="path909"
     mask="none"
     style="opacity:0.14642857;fill:#e2e8f0;fill-opacity:1;stroke:none;stroke-width:0.87503px;stroke-linecap:butt;stroke-linejoin:miter;stroke-opacity:1"
     d="M 877.34961 -0.83203125 L 538.17773 -0.43164062 C 539.53582 46.684048 559.73242 108.16016 559.73242 108.16016 C 572.36628 202.74189 834.18124 62.173744 876.08008 4.1640625 C 877.3046 2.4686859 877.69822 0.80317441 877.34961 -0.83203125 z " />
  <rect
     style="fill:#e2e8f0;fill-opacity:1"
     id="rect833"
     width="297.46912"
     height="277.18713"
     x="-922.83026"
     y="-388.73804"
     ry="6.9642901" />
</svg>
